<svg xmlns="http://www.w3.org/2000/svg" viewBox="0 0 1280 720" font-family="ui-monospace, SFMono-Regular, Menlo, monospace">
  <rect width="1280" height="720" fill="#0A0A0B"/>
  <rect x="0.5" y="0.5" width="1279" height="719" fill="none" stroke="#D9FF4B" stroke-opacity="0.12"/>

  <text x="64" y="68" fill="#86868B" font-size="14" letter-spacing="4">TECHNICAL ARCHITECTURE / ONESIGNAL</text>
  <text x="64" y="110" fill="#F2F1ED" font-size="34" font-weight="600">OneSignal Migration &amp; Messaging Architecture</text>

  <defs>
    <marker id="arrow" markerWidth="10" markerHeight="10" refX="8" refY="3" orient="auto">
      <path d="M0,0 L8,3 L0,6 Z" fill="#D9FF4B" fill-opacity="0.7"/>
    </marker>
  </defs>

  <!-- Layer 1: legacy estate -->
  <text x="64" y="170" fill="#86868B" font-size="13" letter-spacing="2">ANGOLAN RETAIL BANK — LEGACY ESTATE</text>
  <g>
    <rect x="64" y="186" width="556" height="86" fill="#141416" stroke="#F2F1ED" stroke-opacity="0.12"/>
    <text x="84" y="224" fill="#F2F1ED" font-size="18" font-weight="600">MS Dynamics 365</text>
    <text x="84" y="250" fill="#86868B" font-size="12">Migrating off — customer engagement stack</text>

    <rect x="660" y="186" width="556" height="86" fill="#141416" stroke="#F2F1ED" stroke-opacity="0.12"/>
    <text x="680" y="224" fill="#F2F1ED" font-size="18" font-weight="600">Legacy OneSignal (2014)</text>
    <text x="680" y="250" fill="#86868B" font-size="12">Aged install · SDKs to be uplifted</text>
  </g>

  <line x1="342" y1="272" x2="500" y2="332" stroke="#D9FF4B" stroke-opacity="0.5" marker-end="url(#arrow)"/>
  <line x1="938" y1="272" x2="780" y2="332" stroke="#D9FF4B" stroke-opacity="0.5" marker-end="url(#arrow)"/>

  <!-- Layer 2: OneSignal core -->
  <rect x="64" y="336" width="1152" height="172" fill="#0A0A0B" stroke="#D9FF4B" stroke-opacity="0.35"/>
  <text x="84" y="372" fill="#D9FF4B" font-size="18" font-weight="600">OneSignal</text>
  <text x="84" y="396" fill="#86868B" font-size="12">Re-implemented and led across the full OneSignal surface</text>
  <g font-size="14">
    <rect x="84" y="418" width="350" height="72" fill="#141416" stroke="#F2F1ED" stroke-opacity="0.12"/>
    <text x="104" y="452" fill="#F2F1ED" font-weight="600">SDK</text>
    <text x="104" y="476" fill="#86868B" font-size="12">Web · iOS · Android — re-wired</text>

    <rect x="450" y="418" width="350" height="72" fill="#141416" stroke="#F2F1ED" stroke-opacity="0.12"/>
    <text x="470" y="452" fill="#F2F1ED" font-weight="600">REST API</text>
    <text x="470" y="476" fill="#86868B" font-size="12">Users · events · messaging</text>

    <rect x="816" y="418" width="400" height="72" fill="#141416" stroke="#F2F1ED" stroke-opacity="0.12"/>
    <text x="836" y="452" fill="#F2F1ED" font-weight="600">Webhooks</text>
    <text x="836" y="476" fill="#86868B" font-size="12">External triggers · WhatsApp · SMS</text>
  </g>

  <line x1="640" y1="508" x2="380" y2="556" stroke="#D9FF4B" stroke-opacity="0.5" marker-end="url(#arrow)"/>
  <line x1="640" y1="508" x2="985" y2="556" stroke="#D9FF4B" stroke-opacity="0.5" marker-end="url(#arrow)"/>

  <!-- Layer 3: channels -->
  <rect x="64" y="560" width="462" height="92" fill="#141416" stroke="#F2F1ED" stroke-opacity="0.12"/>
  <text x="84" y="594" fill="#F2F1ED" font-size="16" font-weight="600">WhatsApp Business Manager</text>
  <text x="84" y="618" fill="#86868B" font-size="12">Webhook triggers approved</text>
  <text x="84" y="636" fill="#86868B" font-size="12">message templates</text>

  <rect x="754" y="560" width="462" height="92" fill="#141416" stroke="#F2F1ED" stroke-opacity="0.12"/>
  <text x="774" y="594" fill="#F2F1ED" font-size="16" font-weight="600">SOAP SMS Infrastructure</text>
  <text x="774" y="618" fill="#86868B" font-size="12">Webhook bridged to legacy</text>
  <text x="774" y="636" fill="#86868B" font-size="12">SOAP endpoint for outbound SMS</text>

  <text x="64" y="694" fill="#86868B" font-size="12">Led the technical sessions for the Portugal-based dev team — delivered cross-language with AI/real-time translation.</text>
</svg>
